<?xml version="1.0" encoding="UTF-8"?>
<svg version="1.1" viewBox="0 0 1920 1920" width="1920" height="1920" xmlns="http://www.w3.org/2000/svg">
<path transform="translate(924,292)" d="m0 0h72v71h21l9 3 8 5 6 7 4 10 1 55 16 8 16 10 17 13 13 12 5 5v2h2l9 11 11 15 10 17 8 17 7 19 5 21 3 21v37h117l8 4 5 6 2 7-1 8-3 6-6 5-5 2-62 1v43l62 1 8 4 5 6 2 7-1 9-4 6-6 5-3 1-117 1-1 96h104l10 3 9 6 6 8 3 8 1 6v14h38l9 3 8 7 4 8 1 3v14h48l10 4 7 8 2 5v27l-4 8-8 7-6 2h-49v14l-4 9-7 8-10 4h-39v15l-2 9-6 10-7 6-8 4-4 1h-106v349h196l8 4 4 5 2 4v12l-5 8-6 4-3 1h-77v113h77l8 4 4 5 2 4v12l-6 9-8 4h-806l-8-4-4-5-2-4v-12l5-8 6-4 3-1h77v-113h-77l-8-4-4-5-2-4v-12l5-8 6-4 3-1h196v-349h-106l-9-3-9-7-6-9-2-5-1-6v-15h-39l-10-4-8-9-3-8v-14h-49l-9-4-7-8-2-5v-27l4-8 8-7 7-2h48v-14l4-9 6-7 8-4 4-1h38v-14l3-12 6-9 8-6 7-3 5-1h104l-1-96-117-1-7-4-5-6-2-7 1-8 4-7 5-4 5-2 62-1v-43l-62-1-8-4-5-6-2-7 1-8 4-7 5-4 5-2h119v-24l2-24 4-20 6-20 6-15 8-16 11-18 11-14 12-13 11-11 17-13 18-12 8-5 6-3 1-55 4-10 7-8 7-4 9-3h21z" fill="#B42222"/>
<path transform="translate(924,292)" d="m0 0h72v71h21l9 3 8 5 6 7 4 10 1 55 16 8 16 10 17 13 13 12 5 5v2h2l9 11 11 15 10 17 8 17 7 19 5 21 3 21v37h117l8 4 5 6 2 7-1 8-3 6-6 5-5 2-62 1v43l62 1 8 4 5 6 2 7-1 9-4 6-6 5-3 1-117 1-1 96h104l10 3 9 6 6 8 3 8 1 6v14h38l9 3 8 7 4 8 1 3v14h48l10 4 7 8 2 5v27l-4 8-8 7-6 2h-49v14l-4 9-7 8-10 4h-39v15l-2 9-6 10-7 6-8 4-4 1h-106v349h-207v-301l25-3 21-5 20-8 11-6 11-7 6-5h2v-2l8-7 3-3h2v-2h2l2-4 10-13 5-10 6-20 2-16 1-21-2-21-3-16-7-19-11-21-8-11-5-6v-2h-2l-7-8-9-8-14-10-14-8-16-7-22-6-12-2-20-1-21 2-21 5-14 5-11 5h-2v2l-10 5-12 9-6 5-4 4h-2l-2 4-8 8-7 10-1-3 9-16 10-13 11-12 8-8 15-11 17-10 24-9 18-4 24-2v-64h-325l-7-4-5-6-2-7 1-8 4-7 5-4 5-2 62-1v-43l-62-1-8-4-5-6-2-7 1-8 4-7 5-4 5-2h119v-24l2-24 4-20 6-20 6-15 8-16 11-18 11-14 12-13 11-11 17-13 18-12 8-5 6-3 1-55 4-10 7-8 7-4 9-3h21z" fill="#891918"/>
<path transform="translate(960,772)" d="m0 0h208l-1 97h104l10 3 9 6 6 8 3 8 1 6v14h38l9 3 8 7 4 8 1 3v14h48l10 4 7 8 2 5v27l-4 8-8 7-6 2h-49v14l-4 9-7 8-10 4h-39v15l-2 9-6 10-7 6-8 4-4 1h-106v349h-207v-301l25-3 21-5 20-8 11-6 11-7 6-5h2v-2l8-7 3-3h2v-2h2l2-4 10-13 5-10 6-20 2-16 1-21-2-21-3-16-7-19-11-21-8-11-5-6v-2h-2l-7-8-9-8-14-10-14-8-16-7-22-6-12-2-20-1-21 2-21 5-14 5-11 5h-2v2l-10 5-12 9-6 5-4 4h-2l-2 4-8 8-7 10-1-3 9-16 10-13 11-12 8-8 15-11 17-10 24-9 18-4 24-2z" fill="#F24336"/>
<path transform="translate(752,772)" d="m0 0h208v64l-3 1-21 2-21 5-21 8-14 8-11 8-10 8-12 12-13 17-9 16v2l8-11 12-12h2l2-4 10-8 14-9h3v-2l21-9 17-5 16-3 21-1 21 2 24 6 12 5 16 8 11 7 16 13 8 8v2h2l10 13 9 15 9 19 5 15 3 20 1 22-2 24-5 19-5 12-7 11-8 10h-2v2l-8 7-3 3h-2v2l-14 10-16 9-15 6-16 5-16 3-9 1h-10v300h-176v-664l-32-1z" fill="#D1332F"/>
<path transform="translate(634,1477)" d="m0 0h326v113h403l8 4 4 5 2 4v12l-6 9-8 4h-806l-8-4-4-5-2-4v-12l5-8 6-4 3-1h77z" fill="#D1332F"/>
<path transform="translate(945,859)" d="m0 0 20 1 20 4 17 5 21 10 12 8 16 13 8 8v2h2l10 13 9 15 9 19 5 15 3 20 1 22-2 24-5 19-5 12-7 11-8 10h-2v2l-8 7-3 3h-2v2l-14 10-16 9-15 6-16 5-16 3-9 1h-18l-22-3-21-6-20-9-15-9-11-9-12-11-9-10-12-18-8-16-7-19-4-18-1-7v-31l3-18 5-16 5-12 9-13 13-13h2l2-4 10-8 14-9h3v-2l21-9 17-5 16-3z" fill="#B42222"/>
<path transform="translate(924,292)" d="m0 0h72v71h21l9 3 8 5 6 7 4 10 1 55 16 8 16 10 17 13 13 12 5 5v2h2l9 11 11 15 10 17 8 17 7 19 5 21 3 21v37h-207v-225l-32 2-23 5-26 9-3 1v-55l4-10 7-8 7-4 9-3h21z" fill="#F34336"/>
<path transform="translate(1167,870)" d="m0 0h109l12 6 7 8 4 10 1 6v14h38l9 3 8 7 4 8 1 3v14h48l10 4 7 8 2 5v27l-4 8-8 7-6 2h-49v14l-4 9-7 8-10 4h-39v15l-2 9-6 10-7 6-8 4h-110z" fill="#D1332F"/>
<path transform="translate(939,426)" d="m0 0h21v225h-204l-1-1v-23l2-24 4-20 6-20 6-15 8-16 11-18 11-14 12-13 11-11 17-13 18-12 8-5 15-7 25-8 19-4z" fill="#D1332F"/>
<path transform="translate(960,1477)" d="m0 0h326v113h-326z" fill="#F24336"/>
<path transform="translate(1119,772)" d="m0 0h49l-1 97h104v1h-104v219h106v1h-106v349h-48z" fill="#FB6D6B"/>
<path transform="translate(557,1590)" d="m0 0h806l8 4 4 5 2 4v12l-6 9-8 4h-806l-8-4-4-5-2-4v-12l5-8 6-4z" fill="#891918"/>
<path transform="translate(960,860)" d="m0 0 12 1 24 6 12 5 16 8 11 7 16 13 8 8v2h2l10 13 9 15 9 19 5 15 3 20 1 22-2 24-5 19-5 12-7 11-8 10h-2v2l-8 7-3 3h-2v2l-14 10-16 9-15 6-16 5-16 3-9 1h-10z" fill="#D1332F"/>
<path transform="translate(649,869)" d="m0 0h104v110l-1 1h-131v80h-1v-15h-39l-10-4-8-9-3-8v-14h-49l-9-4-7-8-2-5v-27l4-8 8-7 7-2h48v-14l4-9 6-7 8-4 4-1h38v-14l3-12 6-9 8-6 7-3z" fill="#D13430"/>
<path transform="translate(636,734)" d="m0 0h648l8 4 5 6 2 7-1 9-4 6-6 5-3 1h-650l-7-4-5-6-2-7 1-8 4-7 5-4z" fill="#B42222"/>
<path transform="translate(699,689)" d="m0 0h523v45h-524z" fill="#F24235"/>
<path transform="translate(960,1477)" d="m0 0h160l-1 113h-159z" fill="#F24235"/>
<path transform="translate(924,292)" d="m0 0h72v71h21l9 3 8 5 6 7 4 10 1 54-3 1-19-7-18-5-24-4-15-1h-11l-27 2-23 5-26 9-3 1v-55l4-10 7-8 7-4 9-3h21z" fill="#AFBEC4"/>
<path transform="translate(960,1439)" d="m0 0h403l8 4 4 5 2 4v12l-5 8-6 4-3 1h-403z" fill="#B42222"/>
<path transform="translate(557,1439)" d="m0 0h403v38h-403l-8-4-4-5-2-4v-12l5-8 6-4z" fill="#891918"/>
<path transform="translate(960,1590)" d="m0 0h403l8 4 4 5 2 4v12l-6 9-8 4h-403z" fill="#B42222"/>
<path transform="translate(1168,980)" d="m0 0h131v86l-6 12-8 7-8 4h-109z" fill="#B42222"/>
<path transform="translate(634,1477)" d="m0 0h118l1 1v112h-119z" fill="#F24336"/>
<path transform="translate(636,734)" d="m0 0h324v38h-325l-7-4-5-6-2-7 1-8 4-7 5-4z" fill="#891918"/>
<path transform="translate(960,651)" d="m0 0h324l8 4 5 6 2 7-1 8-3 6-6 5-5 2h-324z" fill="#B42222"/>
<path transform="translate(699,689)" d="m0 0h261v45h-262z" fill="#D1332F"/>
<path transform="translate(620,913)" d="m0 0h1v66l-1 66h-39l-10-4-8-9-3-8v-14h-49l-9-4-7-8-2-5v-27l4-8 8-7 7-2h48v-14l4-9 6-7 8-4 4-1z" fill="#8E979C"/>
<path transform="translate(1299,913)" d="m0 0 39 1 9 3 8 7 4 8 1 3v14h48l10 4 7 8 2 5v27l-4 8-8 7-6 2h-49v14l-4 9-7 8-10 4h-39l-1-66z" fill="#8E979C"/>
<path transform="translate(1056,449)" d="m0 0 12 6 17 12 10 8 12 11 5 5v2h2l9 11 11 15 10 17 8 17 7 19 5 21 3 21v37h-48l-2-32-6-36-6-24-10-29-8-20-7-15-8-15-7-14-9-15z" fill="#FB6F6D"/>
<path transform="translate(957,836)" d="m0 0 21 1 20 4 14 4 16 7 11 6 14 10 3 2v2l5 2 11 11 8 10 9 13 7 12 9 24 4 16 2 16v22l-3 21-6 20-6 15-5 9-4 5 1-5 6-20 2-16 1-21-2-21-3-16-7-19-11-21-8-11-5-6v-2h-2l-7-8-9-8-14-10-14-8-16-7-22-6-12-2-20-1-21 2-21 5-14 5-11 5h-2v2l-10 5-12 9-6 5-4 4h-2l-2 4-8 8-7 10-1-3 9-16 10-13 11-12 8-8 15-11 17-10 24-9 18-4z" fill="#E75B5A"/>
<path transform="translate(861,451)" d="m0 0h3v2h-2v3h-2l-2 5-8 11-10 16h-2l-2 6-5 8-6 11-8 16-8 18-4 12h-2v5h-2l1 3-7 23-5 26-2 17v18h-32l-1-1v-23l2-24 4-20 6-20 6-15 8-16 11-18 11-14 12-13 11-11 17-13z" fill="#B52424"/>
<path transform="translate(1120,1477)" d="m0 0h49v113h-50v-112z" fill="#FB6D6B"/>
<path transform="translate(925,292)" d="m0 0h70v72h-70z" fill="#8E979C"/>
<path transform="translate(1120,689)" d="m0 0h102v45h-103v-44z" fill="#F24336"/>
<path transform="translate(752,1477)" d="m0 0h208v1l-175 1v109l175 1v1h-207z" fill="#B42222"/>
<path transform="translate(1299,913)" d="m0 0 39 1 9 3 8 7 4 8 1 3v14h48v1h-49l1 29h-61z" fill="#AEBDC4"/>
<path transform="translate(620,913)" d="m0 0h1v66h-61l1-29h-49v-1h48v-14l4-9 6-7 8-4 4-1z" fill="#AEBDC4"/>
<path transform="translate(508,950)" d="m0 0h53v28l-1 31h-52l-6-3-7-8-2-5v-27l4-8 8-7z" fill="#607D8B"/>
<path transform="translate(1359,950)" d="m0 0h53l8 5 5 6 2 5v27l-4 8-8 7-3 1h-52l-1-35z" fill="#607D8B"/>
<path transform="translate(699,689)" d="m0 0h53l1 1v44h-55z" fill="#F14336"/>
<path transform="translate(1120,689)" d="m0 0h49l1 45h-51v-44z" fill="#FB6D6B"/>
<path transform="translate(752,689)" d="m0 0h208v1h-175v43h-32z" fill="#B42222"/>
<path transform="translate(978,292)" d="m0 0h17v72l-17-1z" fill="#607D8B"/>
<path transform="translate(925,292)" d="m0 0h17v71l-17 1z" fill="#607D8B"/>
</svg>
